<?xml version="1.0" encoding="UTF-8" standalone="no"?>
<!-- Created with Inkscape (http://www.inkscape.org/) -->

<svg
   xmlns:dc="http://purl.org/dc/elements/1.1/"
   xmlns:cc="http://creativecommons.org/ns#"
   xmlns:rdf="http://www.w3.org/1999/02/22-rdf-syntax-ns#"
   xmlns:svg="http://www.w3.org/2000/svg"
   xmlns="http://www.w3.org/2000/svg"
   xmlns:sodipodi="http://sodipodi.sourceforge.net/DTD/sodipodi-0.dtd"
   xmlns:inkscape="http://www.inkscape.org/namespaces/inkscape"
   width="24"
   height="24"
   viewBox="0 0 24 24"
   id="svg4158"
   version="1.1"
   inkscape:version="0.91 r13725"
   sodipodi:docname="bucket-tool.svg">
  <defs
     id="defs4160" />
  <sodipodi:namedview
     id="base"
     pagecolor="#ffffff"
     bordercolor="#666666"
     borderopacity="1.0"
     inkscape:pageopacity="0.0"
     inkscape:pageshadow="2"
     inkscape:zoom="22.627417"
     inkscape:cx="0.40056936"
     inkscape:cy="11.784035"
     inkscape:document-units="px"
     inkscape:current-layer="layer1"
     showgrid="false"
     units="px"
     inkscape:window-width="1920"
     inkscape:window-height="1017"
     inkscape:window-x="1912"
     inkscape:window-y="-8"
     inkscape:window-maximized="1" />
  <metadata
     id="metadata4163">
    <rdf:RDF>
      <cc:Work
         rdf:about="">
        <dc:format>image/svg+xml</dc:format>
        <dc:type
           rdf:resource="http://purl.org/dc/dcmitype/StillImage" />
        <dc:title />
      </cc:Work>
    </rdf:RDF>
  </metadata>
  <g
     inkscape:label="Capa 1"
     inkscape:groupmode="layer"
     id="layer1"
     transform="translate(0,-1028.3622)">
    <path
       inkscape:connector-curvature="0"
       id="path4214-5"
       d="m 9.758229,1039.6338 a 8.7134495,2.1675246 30 0 1 -8.0574144,-6.18 8.7134495,2.1675246 30 0 1 4.6191822,-0.4173"
       style="opacity:1;fill:none;fill-opacity:1;stroke:#000000;stroke-width:0.99883014;stroke-linecap:round;stroke-linejoin:round;stroke-miterlimit:4;stroke-dasharray:none;stroke-dashoffset:0;stroke-opacity:1" />
    <path
       inkscape:connector-curvature="0"
       id="path4214"
       d="m 21.846401,1042.107 a 8.7134495,2.1675246 45 0 1 -7.694008,-4.6287 8.7134495,2.1675246 45 0 1 -4.628671,-7.694 8.7134495,2.1675246 45 0 1 7.694015,4.6287 8.7134495,2.1675246 45 0 1 4.628664,7.694 z"
       style="opacity:1;fill:none;fill-opacity:1;stroke:#000000;stroke-width:0.99883014;stroke-linecap:round;stroke-linejoin:round;stroke-miterlimit:4;stroke-dasharray:none;stroke-dashoffset:0;stroke-opacity:1" />
    <path
       style="opacity:1;fill:none;fill-opacity:1;stroke:#000000;stroke-width:0.99883014;stroke-linecap:round;stroke-linejoin:round;stroke-miterlimit:4;stroke-dasharray:none;stroke-dashoffset:0;stroke-opacity:1"
       d="m 12.412306,1050.9281 c -0.854398,0.8544 -4.1683195,-1.0742 -7.4018313,-4.3077 -3.2335138,-3.2336 -5.16216193,-6.5475 -4.3077886,-7.4019"
       id="path4214-3"
       inkscape:connector-curvature="0"
       sodipodi:nodetypes="csc" />
    <path
       style="fill:none;fill-rule:evenodd;stroke:#000000;stroke-width:0.99883014;stroke-linecap:round;stroke-linejoin:round;stroke-miterlimit:4;stroke-dasharray:none;stroke-opacity:1"
       d="m 12.351107,1050.9822 9.441281,-8.8282"
       id="path4232"
       inkscape:connector-curvature="0" />
    <path
       style="fill:none;fill-rule:evenodd;stroke:#000000;stroke-width:0.99883014;stroke-linecap:round;stroke-linejoin:round;stroke-miterlimit:4;stroke-dasharray:none;stroke-opacity:1"
       d="m 0.70997856,1039.2112 8.82821114,-9.4413"
       id="path4232-7"
       inkscape:connector-curvature="0" />
    <path
       inkscape:connector-curvature="0"
       id="path4264"
       d="m 12.463837,1041.3074 a 1.6001941,1.6001941 0 0 1 -2.263018,0 1.6001941,1.6001941 0 0 1 0,-2.2631 1.6001941,1.6001941 0 0 1 2.263018,0 1.6001941,1.6001941 0 0 1 0,2.2631 z"
       style="opacity:1;fill:none;fill-opacity:1;stroke:#000000;stroke-width:0.99883014;stroke-linecap:round;stroke-linejoin:round;stroke-miterlimit:4;stroke-dasharray:none;stroke-dashoffset:0;stroke-opacity:1" />
    <path
       style="opacity:1;fill:none;fill-opacity:1;stroke:#000000;stroke-width:0.99883014;stroke-linecap:round;stroke-linejoin:round;stroke-miterlimit:4;stroke-dasharray:none;stroke-dashoffset:0;stroke-opacity:1"
       d="m 23.500585,1048.3604 c 1.5e-5,0.8217 -0.729523,1.4878 -1.629459,1.4878 -0.899937,0 -1.629476,-0.6661 -1.62946,-1.4878 -1.6e-5,-0.8216 0.856868,-2.2827 1.62946,-3.5044 0.82816,1.3096 1.629474,2.6828 1.629459,3.5044 z"
       id="path4273"
       inkscape:connector-curvature="0"
       sodipodi:nodetypes="csccc" />
    <path
       style="opacity:1;fill:#000000;fill-opacity:1;stroke:#000000;stroke-width:0.99883014;stroke-linecap:round;stroke-linejoin:round;stroke-miterlimit:4;stroke-dasharray:none;stroke-dashoffset:0;stroke-opacity:1"
       d="m 14.594062,1037.9611 c 2.640862,0.063 5.158326,0.7295 6.484952,1.5809 0.911773,0.5851 1.251135,2.4511 0.490706,2.7207 -1.56407,0.391 -5.127266,-2.6934 -6.975658,-4.3016 z"
       id="path4276"
       inkscape:connector-curvature="0"
       sodipodi:nodetypes="cscc" />
  </g>
</svg>
